<svg width="30" height="31" viewBox="0 0 30 31" fill="none" xmlns="http://www.w3.org/2000/svg">
<path d="M10.8301 18.5782C10.8301 20.1765 12.0567 21.465 13.5806 21.465H16.6905C18.0162 21.465 19.0941 20.3376 19.0941 18.9499C19.0941 17.4383 18.4374 16.9056 17.4586 16.5587L12.4655 14.8241C11.4867 14.4772 10.8301 13.9444 10.8301 12.4329C10.8301 11.0452 11.908 9.91772 13.2337 9.91772H16.3435C17.8675 9.91772 19.0941 11.2063 19.0941 12.8046" stroke="#C7CEE6" stroke-width="1.85847" stroke-linecap="round" stroke-linejoin="round"/>
<path d="M14.9539 8.25757V23.1253" stroke="#C7CEE6" stroke-width="1.85847" stroke-linecap="round" stroke-linejoin="round"/>
<path d="M14.953 28.0814C21.7957 28.0814 27.3429 22.5343 27.3429 15.6916C27.3429 8.84887 21.7957 3.30176 14.953 3.30176C8.11034 3.30176 2.56323 8.84887 2.56323 15.6916C2.56323 22.5343 8.11034 28.0814 14.953 28.0814Z" stroke="#C7CEE6" stroke-width="1.85847" stroke-linecap="round" stroke-linejoin="round"/>
</svg>
