<svg width="31" height="31" viewBox="0 0 31 31" fill="none" xmlns="http://www.w3.org/2000/svg">
<path d="M26.1269 10.7483L18.0116 4.25604C16.4257 2.99228 13.9477 2.97989 12.3742 4.24365L4.25891 10.7483C3.09427 11.6775 2.38805 13.536 2.63584 14.998L4.19696 24.3399C4.55626 26.4338 6.50146 28.0816 8.62012 28.0816H21.7533C23.8472 28.0816 25.8296 26.3966 26.1889 24.3275L27.75 14.9856C27.973 13.536 27.2668 11.6775 26.1269 10.7483ZM16.116 23.1257C16.116 23.6337 15.6947 24.055 15.1867 24.055C14.6787 24.055 14.2575 23.6337 14.2575 23.1257V19.4088C14.2575 18.9008 14.6787 18.4795 15.1867 18.4795C15.6947 18.4795 16.116 18.9008 16.116 19.4088V23.1257Z" fill="black"/>
</svg>
