<svg width="110" height="28" viewBox="0 0 110 28" fill="none" xmlns="http://www.w3.org/2000/svg">
<path d="M0 1.89014H7.66343L14.7485 8.39682L7.66343 8.25223V14.6143L0 8.39682V1.89014Z" fill="white"/>
<path d="M0 14.6143H7.66343L14.7485 21.1209L7.66343 20.9764V27.3384L0 21.1209V14.6143Z" fill="white"/>
<path d="M26.2661 7.9448C27.6377 7.9448 28.841 8.21289 29.8759 8.74906C30.9233 9.28523 31.7276 10.0521 32.2887 11.0496C32.8623 12.0347 33.1491 13.1818 33.1491 14.4911C33.1491 15.8004 32.8623 16.9475 32.2887 17.9326C31.7276 18.9052 30.9233 19.6596 29.8759 20.1957C28.841 20.7319 27.6377 21 26.2661 21H21.7024V7.9448H26.2661ZM26.1726 18.7743C27.5442 18.7743 28.6041 18.4002 29.3522 17.652C30.1004 16.9039 30.4744 15.8502 30.4744 14.4911C30.4744 13.132 30.1004 12.0721 29.3522 11.3115C28.6041 10.5384 27.5442 10.1518 26.1726 10.1518H24.3209V18.7743H26.1726ZM44.3675 15.5946C44.3675 15.9687 44.3426 16.3054 44.2927 16.6046H36.7177C36.78 17.3528 37.0419 17.9388 37.5032 18.3628C37.9646 18.7867 38.532 18.9987 39.2053 18.9987C40.1779 18.9987 40.8699 18.581 41.2814 17.7456H44.1057C43.8064 18.7431 43.2328 19.566 42.3849 20.2144C41.537 20.8504 40.4958 21.1683 39.2614 21.1683C38.2639 21.1683 37.3661 20.9501 36.5681 20.5137C35.7825 20.0648 35.1653 19.4351 34.7164 18.6246C34.28 17.8141 34.0618 16.8789 34.0618 15.8191C34.0618 14.7467 34.28 13.8053 34.7164 12.9948C35.1528 12.1843 35.7638 11.5609 36.5494 11.1244C37.3349 10.688 38.2389 10.4698 39.2614 10.4698C40.2465 10.4698 41.1255 10.6818 41.8986 11.1057C42.6842 11.5297 43.2889 12.1344 43.7129 12.92C44.1493 13.6931 44.3675 14.5846 44.3675 15.5946ZM41.6555 14.8465C41.643 14.1731 41.3999 13.637 40.926 13.238C40.4522 12.8265 39.8724 12.6207 39.1866 12.6207C38.5382 12.6207 37.9895 12.8202 37.5407 13.2192C37.1042 13.6058 36.8361 14.1482 36.7364 14.8465H41.6555ZM50.6555 12.7891H48.8412V21H46.1853V12.7891H45.007V10.6381H46.1853V10.1144C46.1853 8.84258 46.5469 7.90739 47.2701 7.30887C47.9933 6.71035 49.0844 6.4298 50.5433 6.4672V8.67424C49.9073 8.66177 49.4647 8.76776 49.2153 8.99221C48.9659 9.21665 48.8412 9.6219 48.8412 10.2079V10.6381H50.6555V12.7891ZM53.3063 9.40369C52.8449 9.40369 52.4584 9.26029 52.1467 8.9735C51.8474 8.67424 51.6978 8.3064 51.6978 7.86998C51.6978 7.43356 51.8474 7.07196 52.1467 6.78517C52.4584 6.48591 52.8449 6.33628 53.3063 6.33628C53.7676 6.33628 54.148 6.48591 54.4472 6.78517C54.7589 7.07196 54.9148 7.43356 54.9148 7.86998C54.9148 8.3064 54.7589 8.67424 54.4472 8.9735C54.148 9.26029 53.7676 9.40369 53.3063 9.40369ZM54.5968 10.6381V21H51.9783V10.6381H54.5968ZM64.8712 7.9448V10.0583H59.4284V13.4063H63.5993V15.4824H59.4284V21H56.8099V7.9448H64.8712ZM76.1359 10.6381V21H73.4987V19.6907C73.162 20.1396 72.7194 20.495 72.1708 20.7569C71.6346 21.0062 71.0485 21.1309 70.4126 21.1309C69.6021 21.1309 68.8851 20.9626 68.2617 20.6259C67.6382 20.2768 67.1457 19.7718 66.7841 19.1109C66.4349 18.4376 66.2604 17.6396 66.2604 16.7168V10.6381H68.8789V16.3428C68.8789 17.1657 69.0846 17.8017 69.4961 18.2506C69.9076 18.687 70.4687 18.9052 71.1795 18.9052C71.9027 18.9052 72.47 18.687 72.8815 18.2506C73.293 17.8017 73.4987 17.1657 73.4987 16.3428V10.6381H76.1359ZM84.0875 10.4885C85.322 10.4885 86.3195 10.8813 87.0801 11.6668C87.8407 12.4399 88.221 13.5247 88.221 14.9213V21H85.6025V15.2767C85.6025 14.4537 85.3968 13.824 84.9853 13.3876C84.5738 12.9387 84.0127 12.7142 83.302 12.7142C82.5787 12.7142 82.0052 12.9387 81.5812 13.3876C81.1697 13.824 80.964 14.4537 80.964 15.2767V21H78.3455V10.6381H80.964V11.9287C81.3131 11.4798 81.7558 11.1307 82.292 10.8813C82.8406 10.6194 83.4391 10.4885 84.0875 10.4885ZM89.6637 15.7817C89.6637 14.7343 89.8694 13.8053 90.2809 12.9948C90.7049 12.1843 91.2785 11.5609 92.0017 11.1244C92.7249 10.688 93.5291 10.4698 94.4144 10.4698C95.0878 10.4698 95.7299 10.6194 96.3409 10.9187C96.9519 11.2055 97.4382 11.592 97.7998 12.0783V7.15924H100.456V21H97.7998V19.4663C97.4756 19.9775 97.0205 20.389 96.4345 20.7007C95.8484 21.0125 95.1688 21.1683 94.3957 21.1683C93.5229 21.1683 92.7249 20.9439 92.0017 20.495C91.2785 20.0461 90.7049 19.4164 90.2809 18.6059C89.8694 17.783 89.6637 16.8415 89.6637 15.7817ZM97.8185 15.8191C97.8185 15.1831 97.6938 14.6407 97.4445 14.1918C97.1951 13.7305 96.8584 13.3813 96.4345 13.1444C96.0105 12.8951 95.5554 12.7704 95.0691 12.7704C94.5828 12.7704 94.1339 12.8888 93.7224 13.1257C93.3109 13.3626 92.9743 13.7118 92.7124 14.1731C92.463 14.622 92.3383 15.1582 92.3383 15.7817C92.3383 16.4051 92.463 16.9538 92.7124 17.4276C92.9743 17.8889 93.3109 18.2443 93.7224 18.4937C94.1464 18.7431 94.5953 18.8678 95.0691 18.8678C95.5554 18.8678 96.0105 18.7493 96.4345 18.5124C96.8584 18.263 97.1951 17.9139 97.4445 17.465C97.6938 17.0036 97.8185 16.455 97.8185 15.8191ZM105.258 12.2467C105.594 11.698 106.031 11.2678 106.567 10.9561C107.116 10.6444 107.739 10.4885 108.437 10.4885V13.238H107.745C106.922 13.238 106.299 13.4312 105.875 13.8178C105.463 14.2043 105.258 14.8776 105.258 15.8378V21H102.639V10.6381H105.258V12.2467Z" fill="white"/>
</svg>
