<svg width="110" height="28" viewBox="0 0 110 28" fill="none" xmlns="http://www.w3.org/2000/svg">
<path d="M0.00012207 1.89014H7.66355L14.7486 8.39682L7.66355 8.25223V14.6143L0.00012207 8.39682V1.89014Z" fill="black"/>
<path d="M0.000244141 14.6143H7.66367L14.7487 21.1209L7.66367 20.9764V27.3384L0.000244141 21.1209V14.6143Z" fill="black"/>
<path d="M26.266 7.9448C27.6376 7.9448 28.8409 8.21289 29.8758 8.74906C30.9232 9.28523 31.7275 10.0521 32.2886 11.0496C32.8622 12.0347 33.149 13.1818 33.149 14.4911C33.149 15.8004 32.8622 16.9475 32.2886 17.9326C31.7275 18.9052 30.9232 19.6596 29.8758 20.1957C28.8409 20.7319 27.6376 21 26.266 21H21.7023V7.9448H26.266ZM26.1725 18.7743C27.5441 18.7743 28.604 18.4002 29.3521 17.652C30.1003 16.9039 30.4743 15.8502 30.4743 14.4911C30.4743 13.132 30.1003 12.0721 29.3521 11.3115C28.604 10.5384 27.5441 10.1518 26.1725 10.1518H24.3208V18.7743H26.1725ZM44.3674 15.5946C44.3674 15.9687 44.3425 16.3054 44.2926 16.6046H36.7176C36.7799 17.3528 37.0418 17.9388 37.5031 18.3628C37.9645 18.7867 38.5318 18.9987 39.2052 18.9987C40.1778 18.9987 40.8698 18.581 41.2813 17.7456H44.1055C43.8063 18.7431 43.2327 19.566 42.3848 20.2144C41.5369 20.8504 40.4957 21.1683 39.2613 21.1683C38.2637 21.1683 37.366 20.9501 36.5679 20.5137C35.7824 20.0648 35.1652 19.4351 34.7163 18.6246C34.2799 17.8141 34.0616 16.8789 34.0616 15.8191C34.0616 14.7467 34.2799 13.8053 34.7163 12.9948C35.1527 12.1843 35.7637 11.5609 36.5492 11.1244C37.3348 10.688 38.2388 10.4698 39.2613 10.4698C40.2463 10.4698 41.1254 10.6818 41.8985 11.1057C42.6841 11.5297 43.2888 12.1344 43.7128 12.92C44.1492 13.6931 44.3674 14.5846 44.3674 15.5946ZM41.6554 14.8465C41.6429 14.1731 41.3997 13.637 40.9259 13.238C40.4521 12.8265 39.8723 12.6207 39.1865 12.6207C38.5381 12.6207 37.9894 12.8202 37.5405 13.2192C37.1041 13.6058 36.836 14.1482 36.7363 14.8465H41.6554ZM50.6554 12.7891H48.8411V21H46.1852V12.7891H45.0068V10.6381H46.1852V10.1144C46.1852 8.84258 46.5468 7.90739 47.27 7.30887C47.9932 6.71035 49.0842 6.4298 50.5431 6.4672V8.67424C49.9072 8.66177 49.4645 8.76776 49.2152 8.99221C48.9658 9.21665 48.8411 9.6219 48.8411 10.2079V10.6381H50.6554V12.7891ZM53.3062 9.40369C52.8448 9.40369 52.4583 9.26029 52.1465 8.9735C51.8473 8.67424 51.6976 8.3064 51.6976 7.86998C51.6976 7.43356 51.8473 7.07196 52.1465 6.78517C52.4583 6.48591 52.8448 6.33628 53.3062 6.33628C53.7675 6.33628 54.1478 6.48591 54.4471 6.78517C54.7588 7.07196 54.9147 7.43356 54.9147 7.86998C54.9147 8.3064 54.7588 8.67424 54.4471 8.9735C54.1478 9.26029 53.7675 9.40369 53.3062 9.40369ZM54.5967 10.6381V21H51.9782V10.6381H54.5967ZM64.8711 7.9448V10.0583H59.4283V13.4063H63.5992V15.4824H59.4283V21H56.8098V7.9448H64.8711ZM76.1358 10.6381V21H73.4986V19.6907C73.1619 20.1396 72.7193 20.495 72.1706 20.7569C71.6345 21.0062 71.0484 21.1309 70.4125 21.1309C69.602 21.1309 68.885 20.9626 68.2616 20.6259C67.6381 20.2768 67.1456 19.7718 66.784 19.1109C66.4348 18.4376 66.2603 17.6396 66.2603 16.7168V10.6381H68.8788V16.3428C68.8788 17.1657 69.0845 17.8017 69.496 18.2506C69.9075 18.687 70.4686 18.9052 71.1793 18.9052C71.9025 18.9052 72.4699 18.687 72.8814 18.2506C73.2929 17.8017 73.4986 17.1657 73.4986 16.3428V10.6381H76.1358ZM84.0874 10.4885C85.3218 10.4885 86.3194 10.8813 87.08 11.6668C87.8406 12.4399 88.2209 13.5247 88.2209 14.9213V21H85.6024V15.2767C85.6024 14.4537 85.3966 13.824 84.9852 13.3876C84.5737 12.9387 84.0126 12.7142 83.3018 12.7142C82.5786 12.7142 82.005 12.9387 81.5811 13.3876C81.1696 13.824 80.9639 14.4537 80.9639 15.2767V21H78.3453V10.6381H80.9639V11.9287C81.313 11.4798 81.7557 11.1307 82.2918 10.8813C82.8405 10.6194 83.439 10.4885 84.0874 10.4885ZM89.6636 15.7817C89.6636 14.7343 89.8693 13.8053 90.2808 12.9948C90.7048 12.1843 91.2783 11.5609 92.0015 11.1244C92.7248 10.688 93.529 10.4698 94.4143 10.4698C95.0877 10.4698 95.7298 10.6194 96.3408 10.9187C96.9518 11.2055 97.4381 11.592 97.7997 12.0783V7.15924H100.456V21H97.7997V19.4663C97.4755 19.9775 97.0204 20.389 96.4343 20.7007C95.8483 21.0125 95.1687 21.1683 94.3956 21.1683C93.5228 21.1683 92.7248 20.9439 92.0015 20.495C91.2783 20.0461 90.7048 19.4164 90.2808 18.6059C89.8693 17.783 89.6636 16.8415 89.6636 15.7817ZM97.8184 15.8191C97.8184 15.1831 97.6937 14.6407 97.4443 14.1918C97.1949 13.7305 96.8583 13.3813 96.4343 13.1444C96.0104 12.8951 95.5553 12.7704 95.069 12.7704C94.5827 12.7704 94.1338 12.8888 93.7223 13.1257C93.3108 13.3626 92.9741 13.7118 92.7123 14.1731C92.4629 14.622 92.3382 15.1582 92.3382 15.7817C92.3382 16.4051 92.4629 16.9538 92.7123 17.4276C92.9741 17.8889 93.3108 18.2443 93.7223 18.4937C94.1462 18.7431 94.5951 18.8678 95.069 18.8678C95.5553 18.8678 96.0104 18.7493 96.4343 18.5124C96.8583 18.263 97.1949 17.9139 97.4443 17.465C97.6937 17.0036 97.8184 16.455 97.8184 15.8191ZM105.258 12.2467C105.594 11.698 106.031 11.2678 106.567 10.9561C107.115 10.6444 107.739 10.4885 108.437 10.4885V13.238H107.745C106.922 13.238 106.299 13.4312 105.875 13.8178C105.463 14.2043 105.258 14.8776 105.258 15.8378V21H102.639V10.6381H105.258V12.2467Z" fill="black"/>
</svg>
