<svg width="27" height="29" viewBox="0 0 27 29" fill="none" xmlns="http://www.w3.org/2000/svg">
<circle cx="13.5" cy="13.5" r="13.5" fill="#EBF2FA"/>
<rect x="8.20359" y="6.6478" width="13.2168" height="18.5035" rx="1.32168" transform="rotate(2.5 8.20359 6.6478)" fill="#F5F8FC" stroke="#A1A6C4" stroke-width="0.377622"/>
<rect x="0.346509" y="5.54155" width="13.972" height="19.2587" rx="1.6993" transform="rotate(-7.5 0.346509 5.54155)" fill="#FAFAFA" stroke="#A1A6C4" stroke-width="0.377622"/>
<path d="M0.755508 7.20167C0.64662 6.37459 1.22883 5.61583 2.05592 5.50694L12.5389 4.12683C13.366 4.01795 14.1247 4.60016 14.2336 5.42724L14.6033 8.23518L1.12518 10.0096L0.755508 7.20167Z" fill="#F5F8FC"/>
<rect x="16.9675" y="4.49634" width="0.566434" height="1.88811" rx="0.283217" transform="rotate(82.5 16.9675 4.49634)" fill="#A1A6C4"/>
<rect x="11.7947" y="1.36841" width="0.566434" height="1.88811" rx="0.283217" transform="rotate(-7.5 11.7947 1.36841)" fill="#A1A6C4"/>
<rect x="15.1135" y="1.88354" width="0.566434" height="1.88811" rx="0.283217" transform="rotate(37.5 15.1135 1.88354)" fill="#A1A6C4"/>
<rect x="2.53418" y="10.5862" width="10.951" height="0.755245" rx="0.377622" transform="rotate(-7.5 2.53418 10.5862)" fill="#A6B7D4"/>
<rect x="3.0271" y="14.3296" width="10.951" height="0.755245" rx="0.377622" transform="rotate(-7.5 3.0271 14.3296)" fill="#A6B7D4"/>
<rect x="3.51978" y="18.0737" width="10.951" height="0.755245" rx="0.377622" transform="rotate(-7.5 3.51978 18.0737)" fill="#A6B7D4"/>
<rect x="2.7312" y="12.0835" width="3.96503" height="0.755245" rx="0.377622" transform="rotate(-7.5 2.7312 12.0835)" fill="#F5F8FC"/>
<rect x="3.22437" y="15.8276" width="3.96503" height="0.755245" rx="0.377622" transform="rotate(-7.5 3.22437 15.8276)" fill="#F5F8FC"/>
<rect x="3.71704" y="19.571" width="3.96503" height="0.755245" rx="0.377622" transform="rotate(-7.5 3.71704 19.571)" fill="#F5F8FC"/>
</svg>
