<svg width="15" height="15" viewBox="0 0 15 15" fill="none" xmlns="http://www.w3.org/2000/svg">
<g clip-path="url(#clip0_1798_4408)">
<path fill-rule="evenodd" clip-rule="evenodd" d="M3.3905 0.579188L0.935873 6.53984C0.926532 6.56201 0.923572 6.58705 0.927426 6.61131C0.931279 6.63556 0.941744 6.65775 0.95729 6.67464L7.58665 14.0186C7.60548 14.0395 7.63057 14.0511 7.65666 14.0511C7.68275 14.0511 7.70783 14.0395 7.72666 14.0186L14.356 6.6751C14.3716 6.65821 14.382 6.63602 14.3859 6.61176C14.3897 6.58751 14.3868 6.56247 14.3774 6.5403L11.9228 0.579647C11.9149 0.559628 11.9021 0.54267 11.8861 0.530799C11.8701 0.518928 11.8514 0.512646 11.8324 0.512704H3.48172C3.46259 0.512429 3.4438 0.51856 3.42761 0.530357C3.41142 0.542153 3.39854 0.559113 3.3905 0.579188Z" fill="#50AF95"/>
<path fill-rule="evenodd" clip-rule="evenodd" d="M8.50938 7.15183C8.46178 7.15596 8.21589 7.17292 7.66737 7.17292C7.2311 7.17292 6.92135 7.15779 6.81267 7.15183C5.12668 7.06609 3.86823 6.72679 3.86823 6.32055C3.86823 5.91431 5.12668 5.57547 6.81267 5.48835V6.81391C6.92293 6.82308 7.23863 6.84463 7.67491 6.84463C8.19843 6.84463 8.46059 6.81941 8.50779 6.81436V5.48927C10.1902 5.57593 11.4459 5.91522 11.4459 6.32055C11.4459 6.72587 10.1906 7.06517 8.50779 7.15137L8.50938 7.15183ZM8.50938 5.35217V4.166H10.8573V2.35718H4.46473V4.166H6.81228V5.35171C4.90418 5.45304 3.46924 5.89001 3.46924 6.41363C3.46924 6.93725 4.90418 7.37375 6.81228 7.47554V11.2766H8.50898V7.47416C10.4127 7.37283 11.8453 6.93633 11.8453 6.41317C11.8453 5.89001 10.4139 5.4535 8.50898 5.35171L8.50938 5.35217Z" fill="white"/>
</g>
<defs>
<clipPath id="clip0_1798_4408">
<rect width="13.4622" height="13.5385" fill="white" transform="translate(0.925293 0.512695)"/>
</clipPath>
</defs>
</svg>
