<svg width="164" height="135" viewBox="0 0 164 135" fill="none" xmlns="http://www.w3.org/2000/svg">
<path d="M5.45337 61.7446V63.1357" stroke="#D2D8DF" stroke-width="1.35447" stroke-linecap="round"/>
<path d="M2.32935 62.4978L3.46607 63.668" stroke="#D2D8DF" stroke-width="1.35447" stroke-linecap="round"/>
<path d="M1 65.6123H2.60732" stroke="#D2D8DF" stroke-width="1.35447" stroke-linecap="round"/>
<path d="M2.19971 68.7832L3.33644 67.613" stroke="#D2D8DF" stroke-width="1.35447" stroke-linecap="round"/>
<path d="M5.45337 69.1638V67.7727" stroke="#D2D8DF" stroke-width="1.35447" stroke-linecap="round"/>
<path d="M7.77213 68.2365L6.84473 67.3091" stroke="#D2D8DF" stroke-width="1.35447" stroke-linecap="round"/>
<path d="M9.6267 65.918H8.2356" stroke="#D2D8DF" stroke-width="1.35447" stroke-linecap="round"/>
<path d="M8.69962 62.6719L7.77222 63.5993" stroke="#D2D8DF" stroke-width="1.35447" stroke-linecap="round"/>
<path d="M80.1091 0.999756V1.92716" stroke="#D2D8DF" stroke-width="1.35447" stroke-linecap="round"/>
<path d="M77.3269 3.78223H78.2543" stroke="#D2D8DF" stroke-width="1.35447" stroke-linecap="round"/>
<path d="M80.1091 6.56412V5.63672" stroke="#D2D8DF" stroke-width="1.35447" stroke-linecap="round"/>
<path d="M82.4281 3.78223H81.5007" stroke="#D2D8DF" stroke-width="1.35447" stroke-linecap="round"/>
<path d="M26.3201 39.9507V41.3418" stroke="#D2D8DF" stroke-width="1.35447" stroke-linecap="round"/>
<path d="M22.147 44.124H23.5381" stroke="#D2D8DF" stroke-width="1.35447" stroke-linecap="round"/>
<path d="M26.3201 47.8337V46.4426" stroke="#D2D8DF" stroke-width="1.35447" stroke-linecap="round"/>
<path d="M30.03 44.124H28.6389" stroke="#D2D8DF" stroke-width="1.35447" stroke-linecap="round"/>
<path d="M126.134 90.5127C127.242 90.5127 128.141 91.4117 128.141 92.5201C128.141 93.629 127.242 94.5275 126.134 94.5275C125.026 94.5275 124.127 93.629 124.127 92.5201" stroke="#D2D8DF" stroke-width="1.35447" stroke-linecap="round"/>
<path fill-rule="evenodd" clip-rule="evenodd" d="M135.319 72.3003C136.51 71.9286 138.337 70.4713 138.76 68.9033C139.143 70.2894 140.751 71.9286 142.201 72.0527C140.568 72.6307 139.007 74.3479 138.76 75.697C138.591 74.3219 136.433 72.5008 135.319 72.3003Z" fill="#EBECEE"/>
<path fill-rule="evenodd" clip-rule="evenodd" d="M12.9995 89.8941C13.5955 89.7083 14.5084 88.9798 14.7198 88.1958C14.9115 88.8884 15.715 89.7083 16.4401 89.7705C15.6241 90.0591 14.8438 90.9179 14.7198 91.5924C14.6356 90.9049 13.5562 89.9941 12.9995 89.8941Z" fill="#EBECEE"/>
<path fill-rule="evenodd" clip-rule="evenodd" d="M24.0598 25.3903C24.0598 26.2503 23.363 26.9469 22.5037 26.9469C21.6439 26.9469 20.9475 26.2503 20.9475 25.3903C20.9475 24.5307 21.6439 23.8337 22.5037 23.8337C23.363 23.8337 24.0598 24.5307 24.0598 25.3903Z" fill="#D1D8DF"/>
<path fill-rule="evenodd" clip-rule="evenodd" d="M127.973 29.5691C127.973 31.006 126.808 32.1707 125.372 32.1707C123.935 32.1707 122.77 31.006 122.77 29.5691C122.77 28.1323 123.935 26.9675 125.372 26.9675C126.808 26.9675 127.973 28.1323 127.973 29.5691Z" fill="#EBECEE"/>
<path fill-rule="evenodd" clip-rule="evenodd" d="M164 22.5212C164 23.6612 163.076 24.585 161.937 24.585C160.797 24.585 159.874 23.6612 159.874 22.5212C159.874 21.3813 160.797 20.4575 161.937 20.4575C163.076 20.4575 164 21.3813 164 22.5212Z" fill="#EBECEE"/>
<path fill-rule="evenodd" clip-rule="evenodd" d="M53.1422 118.905C53.1422 119.623 52.56 120.206 51.8415 120.206C51.1235 120.206 50.5413 119.623 50.5413 118.905C50.5413 118.186 51.1235 117.604 51.8415 117.604C52.56 117.604 53.1422 118.186 53.1422 118.905Z" stroke="#D2D8DF" stroke-width="1.35447" stroke-linecap="round"/>
<path fill-rule="evenodd" clip-rule="evenodd" d="M52.3691 15.3901C52.3691 16.25 51.6723 16.9466 50.813 16.9466C49.9536 16.9466 49.2568 16.25 49.2568 15.3901C49.2568 14.5305 49.9536 13.8335 50.813 13.8335C51.6723 13.8335 52.3691 14.5305 52.3691 15.3901Z" stroke="#D2D8DF" stroke-width="1.35447" stroke-linecap="round"/>
<path fill-rule="evenodd" clip-rule="evenodd" d="M92.0632 133.311C91.0688 133.69 89.9559 133.19 89.5776 132.196C89.1993 131.201 89.6985 130.088 90.6933 129.709C91.6873 129.331 92.8001 129.83 93.1785 130.825C93.5572 131.82 93.0576 132.933 92.0632 133.311Z" stroke="#D2D8DF" stroke-width="1.35447" stroke-linecap="round"/>
<path fill-rule="evenodd" clip-rule="evenodd" d="M91.4695 96.5232H53.4439C50.7675 96.5232 48.5767 94.3259 48.5767 91.6405V37.4141C48.5767 34.7286 50.7675 32.5325 53.4439 32.5325H91.4695C94.147 32.5325 96.3378 34.7286 96.3378 37.4141V91.6405C96.3378 94.3259 94.147 96.5232 91.4695 96.5232Z" fill="#E0E2EE"/>
<path fill-rule="evenodd" clip-rule="evenodd" d="M88.2232 98.8418H50.1975C47.5211 98.8418 45.3303 96.6445 45.3303 93.9591V39.7327C45.3303 37.0472 47.5211 34.8511 50.1975 34.8511H88.2232C90.9007 34.8511 93.0915 37.0472 93.0915 39.7327V93.9591C93.0915 96.6445 90.9007 98.8418 88.2232 98.8418Z" fill="#E8EBF2"/>
<path fill-rule="evenodd" clip-rule="evenodd" d="M85.0662 100.672H46.962C44.28 100.672 42.0847 98.4841 42.0847 95.8098V41.8079C42.0847 39.1336 44.28 36.9465 46.962 36.9465H85.0662C87.7493 36.9465 89.9446 39.1336 89.9446 41.8079V95.8098C89.9446 98.4841 87.7493 100.672 85.0662 100.672Z" fill="#D8DBEA"/>
<path fill-rule="evenodd" clip-rule="evenodd" d="M85.0662 100.672H46.962C44.28 100.672 42.0847 98.4841 42.0847 95.8098V41.8079C42.0847 39.1336 44.28 36.9465 46.962 36.9465H85.0662C87.7493 36.9465 89.9446 39.1336 89.9446 41.8079V95.8098C89.9446 98.4841 87.7493 100.672 85.0662 100.672Z" fill="#F1F2F7"/>
<path fill-rule="evenodd" clip-rule="evenodd" d="M79.5738 53.3989H51.4292C50.6254 53.3989 49.9675 52.773 49.9675 52.0083C49.9675 51.2426 50.6254 50.6167 51.4292 50.6167H79.5738C80.3776 50.6167 81.0355 51.2426 81.0355 52.0083C81.0355 52.773 80.3776 53.3989 79.5738 53.3989Z" fill="#E0E2EE"/>
<path fill-rule="evenodd" clip-rule="evenodd" d="M79.5738 61.7456H51.4292C50.6254 61.7456 49.9675 61.1197 49.9675 60.355C49.9675 59.5893 50.6254 58.9634 51.4292 58.9634H79.5738C80.3776 58.9634 81.0355 59.5893 81.0355 60.355C81.0355 61.1197 80.3776 61.7456 79.5738 61.7456Z" fill="#E0E2EE"/>
<path fill-rule="evenodd" clip-rule="evenodd" d="M79.5738 70.0923H51.4292C50.6254 70.0923 49.9675 69.4663 49.9675 68.7017C49.9675 67.937 50.6254 67.3101 51.4292 67.3101H79.5738C80.3776 67.3101 81.0355 67.937 81.0355 68.7017C81.0355 69.4663 80.3776 70.0923 79.5738 70.0923Z" fill="#E0E2EE"/>
<path fill-rule="evenodd" clip-rule="evenodd" d="M79.5738 78.4389H51.4292C50.6254 78.4389 49.9675 77.813 49.9675 77.0484C49.9675 76.2827 50.6254 75.6567 51.4292 75.6567H79.5738C80.3776 75.6567 81.0355 76.2827 81.0355 77.0484C81.0355 77.813 80.3776 78.4389 79.5738 78.4389Z" fill="#E0E2EE"/>
<path fill-rule="evenodd" clip-rule="evenodd" d="M66.1202 86.7854H51.4355C50.6283 86.7854 49.9675 86.1595 49.9675 85.3948C49.9675 84.6291 50.6283 84.0032 51.4355 84.0032H66.1202C66.9274 84.0032 67.5882 84.6291 67.5882 85.3948C67.5882 86.1595 66.9274 86.7854 66.1202 86.7854Z" fill="#E0E2EE"/>
</svg>
