<svg width="16" height="16" viewBox="0 0 16 16" fill="none" xmlns="http://www.w3.org/2000/svg">
<path d="M12 7.16683C11.7267 7.16683 11.5 6.94016 11.5 6.66683V5.3335C11.5 3.2335 10.9067 1.8335 8 1.8335C5.09333 1.8335 4.5 3.2335 4.5 5.3335V6.66683C4.5 6.94016 4.27333 7.16683 4 7.16683C3.72667 7.16683 3.5 6.94016 3.5 6.66683V5.3335C3.5 3.40016 3.96667 0.833496 8 0.833496C12.0333 0.833496 12.5 3.40016 12.5 5.3335V6.66683C12.5 6.94016 12.2733 7.16683 12 7.16683Z" fill="#505780"/>
<path d="M11.333 15.1665H4.66634C1.72634 15.1665 0.833008 14.2732 0.833008 11.3332V9.99984C0.833008 7.05984 1.72634 6.1665 4.66634 6.1665H11.333C14.273 6.1665 15.1663 7.05984 15.1663 9.99984V11.3332C15.1663 14.2732 14.273 15.1665 11.333 15.1665ZM4.66634 7.1665C2.27967 7.1665 1.83301 7.61984 1.83301 9.99984V11.3332C1.83301 13.7132 2.27967 14.1665 4.66634 14.1665H11.333C13.7197 14.1665 14.1663 13.7132 14.1663 11.3332V9.99984C14.1663 7.61984 13.7197 7.1665 11.333 7.1665H4.66634Z" fill="#505780"/>
<path d="M7.99967 11.3334C7.82634 11.3334 7.65301 11.2601 7.52635 11.1401C7.40635 11.0134 7.33301 10.8468 7.33301 10.6668C7.33301 10.5801 7.34633 10.4934 7.38633 10.4134C7.41967 10.3334 7.46635 10.2601 7.52635 10.1934C7.67968 10.0401 7.91301 9.96676 8.12634 10.0134C8.17301 10.0201 8.21301 10.0334 8.25301 10.0534C8.29301 10.0668 8.33301 10.0868 8.37301 10.1134C8.40634 10.1334 8.43967 10.1668 8.473 10.1934C8.533 10.2601 8.57968 10.3334 8.61302 10.4134C8.64635 10.4934 8.66634 10.5801 8.66634 10.6668C8.66634 10.8468 8.593 11.0134 8.473 11.1401C8.43967 11.1668 8.40634 11.1934 8.37301 11.2201C8.33301 11.2468 8.29301 11.2668 8.25301 11.2801C8.21301 11.3001 8.17301 11.3134 8.12634 11.3201C8.08634 11.3268 8.03967 11.3334 7.99967 11.3334Z" fill="#505780"/>
</svg>
