<svg width="17" height="16" viewBox="0 0 17 16" fill="none" xmlns="http://www.w3.org/2000/svg">
<path d="M8.3215 8.49998C6.17727 8.49998 4.43213 6.77998 4.43213 4.66665C4.43213 2.55331 6.17727 0.833313 8.3215 0.833313C10.4657 0.833313 12.2109 2.55331 12.2109 4.66665C12.2109 6.77998 10.4657 8.49998 8.3215 8.49998ZM8.3215 1.83331C6.7387 1.83331 5.44675 3.10665 5.44675 4.66665C5.44675 6.22665 6.7387 7.49998 8.3215 7.49998C9.90431 7.49998 11.1963 6.22665 11.1963 4.66665C11.1963 3.10665 9.90431 1.83331 8.3215 1.83331Z" fill="#505780"/>
<path d="M14.132 15.1667C13.8547 15.1667 13.6247 14.94 13.6247 14.6667C13.6247 12.3667 11.2437 10.5 8.3216 10.5C5.3995 10.5 3.01853 12.3667 3.01853 14.6667C3.01853 14.94 2.78855 15.1667 2.51122 15.1667C2.23389 15.1667 2.00391 14.94 2.00391 14.6667C2.00391 11.82 4.83808 9.5 8.3216 9.5C11.8051 9.5 14.6393 11.82 14.6393 14.6667C14.6393 14.94 14.4093 15.1667 14.132 15.1667Z" fill="#505780"/>
</svg>
