<svg width="17" height="18" viewBox="0 0 17 18" fill="none" xmlns="http://www.w3.org/2000/svg">
<path d="M17 9C17 13.6944 13.1944 17.5 8.5 17.5C3.80558 17.5 0 13.6944 0 9C0 4.30558 3.80558 0.5 8.5 0.5C13.1944 0.5 17 4.30558 17 9ZM2.21 9C2.21 12.4739 5.02613 15.29 8.5 15.29C11.9739 15.29 14.79 12.4739 14.79 9C14.79 5.52613 11.9739 2.71 8.5 2.71C5.02613 2.71 2.21 5.52613 2.21 9Z" fill="#D7DDF2"/>
<path d="M8.5 0.5C9.61624 0.5 10.7215 0.719859 11.7528 1.14702C12.7841 1.57419 13.7211 2.20029 14.5104 2.98959C15.2997 3.77889 15.9258 4.71592 16.353 5.74719C16.7801 6.77846 17 7.88377 17 9L14.79 9C14.79 8.17399 14.6273 7.35606 14.3112 6.59292C13.9951 5.82978 13.5318 5.13638 12.9477 4.5523C12.3636 3.96822 11.6702 3.5049 10.9071 3.1888C10.1439 2.8727 9.32601 2.71 8.5 2.71V0.5Z" fill="#081A5F"/>
<path d="M4.94928 9.52068H6.77493V9.8125H4.47302V9.52068C5.25745 9.03041 6.28 8.33003 6.28 7.44055C6.28 7.039 6.04654 6.76819 5.60997 6.76819C5.10336 6.76819 4.87457 7.13472 4.86757 7.62265L4.55473 7.60397C4.55473 6.96429 4.93994 6.48103 5.60764 6.48103C6.19829 6.48103 6.59984 6.83589 6.59984 7.44756C6.59984 8.3277 5.67767 9.08411 4.94928 9.52068ZM8.36713 7.61098C8.96478 7.61098 9.4317 8.09424 9.4317 8.71057C9.4317 9.33391 8.92509 9.84752 8.29008 9.84752C7.73679 9.84752 7.29555 9.45064 7.17415 8.90201L7.47298 8.8203C7.56169 9.23119 7.84418 9.55569 8.29008 9.55569C8.75934 9.55569 9.10719 9.16815 9.10719 8.70824C9.10719 8.25299 8.79202 7.90047 8.3251 7.90047C8.04262 7.90047 7.76947 8.04288 7.59438 8.29968L7.27687 8.21097L7.57803 6.51372H9.27295V6.81021H7.8325L7.64107 7.89813C7.86752 7.70203 8.11032 7.61098 8.36713 7.61098ZM10.5967 7.9635C10.1764 7.9635 9.97099 7.5923 9.97099 7.2211C9.97099 6.8499 10.1741 6.4787 10.5803 6.4787C10.9445 6.4787 11.2037 6.79387 11.2037 7.22343C11.2037 7.65067 10.9492 7.9635 10.5967 7.9635ZM10.3866 9.8125L12.2426 6.51372H12.4667L10.613 9.8125H10.3866ZM10.5967 7.74872C10.8255 7.74872 10.9865 7.5316 10.9865 7.22343C10.9865 6.93861 10.8465 6.69348 10.5803 6.69348C10.3048 6.69348 10.1858 6.95963 10.1858 7.2211C10.1858 7.48257 10.3072 7.74872 10.5967 7.74872ZM12.2799 9.84752C11.862 9.84752 11.6566 9.47632 11.6566 9.10512C11.6566 8.73392 11.8597 8.36038 12.2659 8.36038C12.6301 8.36038 12.8892 8.67789 12.8892 9.10745C12.8892 9.53468 12.6348 9.84752 12.2799 9.84752ZM12.2799 9.63274C12.511 9.63274 12.6721 9.41562 12.6721 9.10745C12.6721 8.82263 12.532 8.5775 12.2659 8.5775C11.9904 8.5775 11.8714 8.84364 11.8714 9.10512C11.8714 9.36659 11.9928 9.63274 12.2799 9.63274Z" fill="#505780"/>
</svg>
