<svg width="36" height="36" viewBox="0 0 36 36" fill="none" xmlns="http://www.w3.org/2000/svg">
<path d="M29.0661 21.2237C31.0348 18.7445 33.5869 15.3175 33.5869 9.41121C33.5869 8.97371 33.2952 8.68205 32.8577 8.68205C32.4202 8.68205 32.1286 8.97371 32.1286 9.41121C32.1286 14.2966 30.3057 17.2133 28.4827 19.5466C28.0452 18.1612 27.7536 16.4841 27.7536 14.5154C27.7536 14.1508 27.4619 13.7862 27.0244 13.7862C26.6598 13.7862 26.2952 14.0779 26.2952 14.5154C26.2223 15.755 25.8577 17.1404 25.5661 17.2862C25.2744 17.2862 24.9098 16.2654 24.8369 15.2445C24.8369 14.88 24.4723 14.5883 24.1077 14.5883C23.7432 14.5883 23.3786 14.807 23.3786 15.2445C23.1598 16.4841 22.5765 18.2341 21.9202 18.2341C21.6286 18.2341 21.4827 18.1612 21.4098 18.0154C21.1911 17.7966 21.1182 17.2862 21.1182 16.8487C21.1182 16.557 21.1911 16.2654 21.1911 15.9737C21.1911 15.6091 20.8994 15.2445 20.5348 15.2445C20.1702 15.2445 19.8057 15.4633 19.7327 15.8279C19.7327 15.9008 19.6598 16.1925 19.6598 16.63C19.514 17.8695 19.0765 20.3487 17.5452 20.3487C17.0348 20.3487 16.7432 20.2029 16.5244 19.8383C16.1598 19.255 16.1598 18.307 16.5244 17.432C16.5244 17.432 16.5244 17.432 16.5244 17.3591C16.5973 17.2862 16.5973 17.1404 16.6702 17.0675C17.2536 15.9008 17.9098 15.2445 19.0036 15.2445C19.4411 15.2445 19.7327 14.9529 19.7327 14.5154C19.7327 14.0779 19.4411 13.7862 19.0036 13.7862C15.9411 13.7862 15.0661 16.7758 14.1911 19.6195C13.1702 23.1195 12.2223 25.4529 9.52441 25.4529C5.80566 25.4529 4.42025 20.6404 4.42025 17.432C4.42025 11.1612 7.84733 7.22371 10.9827 7.22371C13.0973 7.22371 13.8994 8.9008 13.9723 8.97371C14.1182 9.3383 14.5557 9.48413 14.9202 9.3383C15.2848 9.19246 15.4307 8.75496 15.2848 8.39038C15.2119 8.24455 14.0452 5.76538 10.9827 5.76538C7.04525 5.76538 2.96191 10.1404 2.96191 17.432C2.96191 24.9425 7.264 26.9112 9.52441 26.9112C13.2432 26.9112 14.4827 23.63 15.4307 20.7133C15.9411 21.3695 16.6702 21.807 17.5452 21.807C19.1494 21.807 20.0973 20.6404 20.6077 19.182C20.9723 19.4737 21.4098 19.6195 21.9202 19.6195C22.9411 19.6195 23.6702 18.7445 24.1077 17.8695C24.3994 18.38 24.9098 18.7445 25.5661 18.7445C26.0036 18.7445 26.3682 18.5258 26.6598 18.2341C26.8786 19.255 27.1702 20.2029 27.389 21.005C26.3682 22.3175 25.5661 23.4112 25.5661 24.7237C25.5661 25.9633 26.514 26.9112 27.7536 26.9112C29.0661 26.9112 29.9411 25.7445 29.9411 24.7237C29.9411 23.7758 29.5765 22.755 29.139 21.5883C29.139 21.4425 29.0661 21.3695 29.0661 21.2237ZM27.7536 25.4529C27.2432 25.4529 27.0244 25.0883 27.0244 24.7237C27.0244 24.0675 27.389 23.4112 27.9723 22.6091C28.264 23.4841 28.4827 24.1404 28.4827 24.7237C28.4827 24.9425 28.264 25.4529 27.7536 25.4529Z" fill="#1565C0"/>
<path d="M33.5869 29.8279H2.96191V31.2862H33.5869V29.8279Z" fill="#90A4AE"/>
</svg>
