<svg width="21" height="28" viewBox="0 0 21 28" fill="none" xmlns="http://www.w3.org/2000/svg">
<g clip-path="url(#clip0_1608_23111)">
<rect width="19.996" height="26.6613" transform="translate(0.0410156 0.661255)" fill="white"/>
<path d="M1.70735 0.661255C0.790864 0.661255 0.0410156 1.4111 0.0410156 2.32759V25.6562C0.0410156 26.5727 0.790864 27.3225 1.70735 27.3225H18.3707C19.2871 27.3225 20.037 26.5727 20.037 25.6562V7.32658L13.3717 0.661255H1.70735Z" fill="#00B41A"/>
<path d="M15.0379 7.32658H20.0369L13.3716 0.661255V5.66025C13.3716 6.57673 14.1214 7.32658 15.0379 7.32658Z" fill="#049119"/>
<path fill-rule="evenodd" clip-rule="evenodd" d="M6.11102 10.1831H13.9666C14.3138 10.1831 14.6468 10.321 14.8924 10.5666C15.1379 10.8121 15.2758 11.1451 15.2758 11.4924V19.3479C15.2758 19.6952 15.1379 20.0282 14.8924 20.2737C14.6468 20.5192 14.3138 20.6572 13.9666 20.6572H6.11102C5.76378 20.6572 5.43076 20.5192 5.18523 20.2737C4.9397 20.0282 4.80176 19.6952 4.80176 19.3479V11.4924C4.80176 11.1451 4.9397 10.8121 5.18523 10.5666C5.43076 10.321 5.76378 10.1831 6.11102 10.1831V10.1831ZM9.22051 17.875L8.86505 17.5195C8.74228 17.3968 8.57581 17.3279 8.40222 17.3279C8.22864 17.3279 8.06216 17.3968 7.9394 17.5195L6.76565 18.6933H13.3119V17.2204L12.1369 15.9281C12.0773 15.8626 12.005 15.8099 11.9244 15.7731C11.8438 15.7363 11.7566 15.7163 11.668 15.7142C11.5795 15.7121 11.4914 15.728 11.4092 15.761C11.3269 15.7939 11.2523 15.8432 11.1896 15.9059L9.22051 17.875ZM7.85692 14.3289C8.00243 14.3324 8.14718 14.3069 8.28266 14.2536C8.41814 14.2004 8.5416 14.1206 8.64578 14.019C8.74995 13.9173 8.83274 13.7958 8.88927 13.6617C8.94579 13.5276 8.97491 13.3835 8.97491 13.2379C8.97491 13.0924 8.94579 12.9483 8.88927 12.8142C8.83274 12.68 8.74995 12.5586 8.64578 12.4569C8.5416 12.3552 8.41814 12.2755 8.28266 12.2222C8.14718 12.169 8.00243 12.1434 7.85692 12.147C7.57221 12.154 7.30151 12.272 7.10261 12.4758C6.90371 12.6796 6.79237 12.9531 6.79237 13.2379C6.79237 13.5227 6.90371 13.7962 7.10261 14.0001C7.30151 14.2039 7.57221 14.3219 7.85692 14.3289V14.3289Z" fill="white"/>
</g>
<defs>
<clipPath id="clip0_1608_23111">
<rect width="19.996" height="26.6613" fill="white" transform="translate(0.0410156 0.661255)"/>
</clipPath>
</defs>
</svg>
