<svg width="17" height="16" viewBox="0 0 17 16" fill="none" xmlns="http://www.w3.org/2000/svg">
<path d="M8.3215 8.50016C6.17727 8.50016 4.43213 6.78016 4.43213 4.66683C4.43213 2.5535 6.17727 0.833496 8.3215 0.833496C10.4657 0.833496 12.2109 2.5535 12.2109 4.66683C12.2109 6.78016 10.4657 8.50016 8.3215 8.50016ZM8.3215 1.8335C6.7387 1.8335 5.44675 3.10683 5.44675 4.66683C5.44675 6.22683 6.7387 7.50016 8.3215 7.50016C9.90431 7.50016 11.1963 6.22683 11.1963 4.66683C11.1963 3.10683 9.90431 1.8335 8.3215 1.8335Z" fill="#505780"/>
<path d="M14.132 15.1667C13.8547 15.1667 13.6247 14.94 13.6247 14.6667C13.6247 12.3667 11.2437 10.5 8.3216 10.5C5.3995 10.5 3.01853 12.3667 3.01853 14.6667C3.01853 14.94 2.78855 15.1667 2.51122 15.1667C2.23389 15.1667 2.00391 14.94 2.00391 14.6667C2.00391 11.82 4.83808 9.5 8.3216 9.5C11.8051 9.5 14.6393 11.82 14.6393 14.6667C14.6393 14.94 14.4093 15.1667 14.132 15.1667Z" fill="#505780"/>
</svg>
