<svg width="17" height="16" viewBox="0 0 17 16" fill="none" xmlns="http://www.w3.org/2000/svg">
<path d="M8.3215 8.49992C6.17727 8.49992 4.43213 6.77992 4.43213 4.66658C4.43213 2.55325 6.17727 0.833252 8.3215 0.833252C10.4657 0.833252 12.2109 2.55325 12.2109 4.66658C12.2109 6.77992 10.4657 8.49992 8.3215 8.49992ZM8.3215 1.83325C6.7387 1.83325 5.44675 3.10659 5.44675 4.66658C5.44675 6.22658 6.7387 7.49992 8.3215 7.49992C9.90431 7.49992 11.1963 6.22658 11.1963 4.66658C11.1963 3.10659 9.90431 1.83325 8.3215 1.83325Z" fill="#505780"/>
<path d="M10.9054 15.1667C10.6483 15.1667 10.4048 15.0734 10.229 14.9001C10.0193 14.6934 9.92458 14.3934 9.97193 14.0801L10.1004 13.1801C10.1343 12.9468 10.2763 12.6734 10.4454 12.5001L12.8399 10.1401C13.8004 9.19343 14.646 9.73343 15.0586 10.1401C15.4103 10.4868 15.5929 10.8601 15.5929 11.2334C15.5929 11.6134 15.4171 11.9667 15.0586 12.3201L12.664 14.6801C12.4949 14.8468 12.2109 14.9868 11.9741 15.0201L11.0609 15.1467C11.0068 15.1601 10.9595 15.1667 10.9054 15.1667ZM13.9425 10.6134C13.8207 10.6134 13.7125 10.6934 13.5569 10.8468L11.1624 13.2067C11.1421 13.2267 11.1083 13.2934 11.1083 13.3201L10.9865 14.1534L11.8321 14.0334C11.8591 14.0267 11.9267 13.9934 11.947 13.9734L14.3416 11.6134C14.4498 11.5067 14.5783 11.3534 14.5783 11.2334C14.5783 11.1334 14.4971 10.9934 14.3416 10.8468C14.1792 10.6868 14.0575 10.6134 13.9425 10.6134Z" fill="#505780"/>
<path d="M14.3551 12.8132C14.3078 12.8132 14.2604 12.8066 14.2198 12.7933C13.327 12.5466 12.6167 11.8466 12.3665 10.9666C12.2921 10.6999 12.4477 10.4266 12.7182 10.3533C12.9888 10.2799 13.2661 10.4332 13.3405 10.6999C13.4961 11.2466 13.9358 11.6799 14.4904 11.8332C14.761 11.9066 14.9166 12.1866 14.8422 12.4466C14.7813 12.6666 14.5783 12.8132 14.3551 12.8132Z" fill="#292D32"/>
<path d="M2.51122 15.1667C2.23389 15.1667 2.00391 14.94 2.00391 14.6667C2.00391 11.82 4.8381 9.5 8.32162 9.5C9.05891 9.5 9.78944 9.60668 10.4726 9.80668C10.7432 9.88668 10.892 10.1667 10.8108 10.4267C10.7296 10.6933 10.4456 10.84 10.1818 10.76C9.58652 10.5867 8.96422 10.4933 8.32162 10.4933C5.39952 10.4933 3.01853 12.36 3.01853 14.66C3.01853 14.94 2.78855 15.1667 2.51122 15.1667Z" fill="#292D32"/>
</svg>
