<svg width="17" height="18" viewBox="0 0 17 18" fill="none" xmlns="http://www.w3.org/2000/svg">
<path d="M17 9C17 13.6944 13.1944 17.5 8.5 17.5C3.80558 17.5 0 13.6944 0 9C0 4.30558 3.80558 0.5 8.5 0.5C13.1944 0.5 17 4.30558 17 9ZM2.21 9C2.21 12.4739 5.02613 15.29 8.5 15.29C11.9739 15.29 14.79 12.4739 14.79 9C14.79 5.52613 11.9739 2.71 8.5 2.71C5.02613 2.71 2.21 5.52613 2.21 9Z" fill="#D7DDF2"/>
<path d="M7.01073 9.84752C6.05354 9.84752 5.84109 8.87866 5.84109 8.16194C5.84109 7.44055 6.04654 6.47169 6.97571 6.47169C7.82317 6.47169 8.14067 7.33316 8.14067 8.17128C8.14067 9.00006 7.83017 9.84752 7.01073 9.84752ZM7.00372 9.54402C7.61772 9.54402 7.81149 8.83897 7.81149 8.16428C7.81149 7.48024 7.61305 6.7822 6.97571 6.7822C6.30568 6.7822 6.15627 7.5316 6.15627 8.16194C6.15627 8.78761 6.30801 9.54402 7.00372 9.54402ZM9.23326 7.9635C8.81303 7.9635 8.60759 7.5923 8.60759 7.2211C8.60759 6.8499 8.8107 6.4787 9.21692 6.4787C9.58112 6.4787 9.84026 6.79387 9.84026 7.22343C9.84026 7.65067 9.58578 7.9635 9.23326 7.9635ZM9.02315 9.8125L10.8792 6.51372H11.1033L9.2496 9.8125H9.02315ZM9.23326 7.74872C9.46205 7.74872 9.62314 7.5316 9.62314 7.22343C9.62314 6.93861 9.48306 6.69348 9.21692 6.69348C8.94144 6.69348 8.82237 6.95963 8.82237 7.2211C8.82237 7.48257 8.94377 7.74872 9.23326 7.74872ZM10.9165 9.84752C10.4986 9.84752 10.2932 9.47632 10.2932 9.10512C10.2932 8.73392 10.4963 8.36038 10.9025 8.36038C11.2667 8.36038 11.5258 8.67789 11.5258 9.10745C11.5258 9.53468 11.2714 9.84752 10.9165 9.84752ZM10.9165 9.63274C11.1476 9.63274 11.3087 9.41562 11.3087 9.10745C11.3087 8.82263 11.1686 8.5775 10.9025 8.5775C10.627 8.5775 10.5079 8.84364 10.5079 9.10512C10.5079 9.36659 10.6293 9.63274 10.9165 9.63274Z" fill="#505780"/>
</svg>
